inDegrees=no
num_controls=7
num_derivatives=13
num_iterations=93
num_multipliers=7
num_parameters=0
num_slacks=7
num_states=26
objective=0.444843
objective_accelerations=0.058027
objective_balance=0.003337
objective_effort=0.023110
objective_height=0.354894
objective_ligament=0.005476
solver_duration=1347.202081
status=Solve_Succeeded
success=true
DataType=double
version=3
OpenSimVersion=4.5
endheader
time	/jointset/ground_pelvis/pelvis_tilt/value	/jointset/ground_pelvis/pelvis_tx/value	/jointset/ground_pelvis/pelvis_ty/value	/jointset/hip_l/hip_flexion_l/value	/jointset/hip_l/hip_adduction_l/value	/jointset/hip_l/hip_rotation_l/value	/jointset/back/lumbar_extension/value	/jointset/patellofemoral_l/patellar_flexion_l/value	/jointset/knee_l/knee_flexion_l/value	/jointset/knee_l/knee_adduction_l/value	/jointset/knee_l/knee_rotation_l/value	/jointset/ankle_l/ankle_angle_l/value	/jointset/subtalar_l/subtalar_angle_l/value	/jointset/ground_pelvis/pelvis_tilt/speed	/jointset/ground_pelvis/pelvis_tx/speed	/jointset/ground_pelvis/pelvis_ty/speed	/jointset/hip_l/hip_flexion_l/speed	/jointset/hip_l/hip_adduction_l/speed	/jointset/hip_l/hip_rotation_l/speed	/jointset/back/lumbar_extension/speed	/jointset/patellofemoral_l/patellar_flexion_l/speed	/jointset/knee_l/knee_flexion_l/speed	/jointset/knee_l/knee_adduction_l/speed	/jointset/knee_l/knee_rotation_l/speed	/jointset/ankle_l/ankle_angle_l/speed	/jointset/subtalar_l/subtalar_angle_l/speed	/forceset/tau_hip_flexion_l	/forceset/tau_hip_adduction_l	/forceset/tau_hip_rotation_l	/forceset/tau_knee_flexion_l	/forceset/tau_ankle_angle_l	/forceset/tau_subtalar_angle_l	/forceset/tau_lumbar_extension	lambda_cid13_p0	lambda_cid13_p1	lambda_cid13_p2	lambda_cid13_p3	lambda_cid13_p4	lambda_cid13_p5	lambda_cid14_p0	/jointset/ground_pelvis/pelvis_tilt/accel	/jointset/ground_pelvis/pelvis_tx/accel	/jointset/ground_pelvis/pelvis_ty/accel	/jointset/hip_l/hip_flexion_l/accel	/jointset/hip_l/hip_adduction_l/accel	/jointset/hip_l/hip_rotation_l/accel	/jointset/back/lumbar_extension/accel	/jointset/patellofemoral_l/patellar_flexion_l/accel	/jointset/knee_l/knee_flexion_l/accel	/jointset/knee_l/knee_adduction_l/accel	/jointset/knee_l/knee_rotation_l/accel	/jointset/ankle_l/ankle_angle_l/accel	/jointset/subtalar_l/subtalar_angle_l/accel	gamma_cid13_p0	gamma_cid13_p1	gamma_cid13_p2	gamma_cid13_p3	gamma_cid13_p4	gamma_cid13_p5	gamma_cid14_p0
0	-0.03941748659632621	0.06886606709378626	0.8959465070736274	0.1955287580552426	-0.3220522556938417	-0.4824853377371859	-0.1379045077516729	0.07015288079084916	0.07015288079084844	-0.1745324449398759	-0.1169968733301915	-0.06701059314715049	0.003760347841478355	0	0	0	0	0	0	0	0	0	0	0	0	0	0.1089654547128696	-0.1044408801852045	-0.03082881717110978	-0.2401713001278653	0.2005337638536112	-0.01373174354969027	-0.05313439305182214	28.81917932548675	-1.93279219877915	3.228132337052687	-3.245424192017934	-515.0172525930304	-82.39479687735995	-39.89264770433943	-4.457362705274181	-1.795975145126022	-0.980470487358284	12.59792777810349	-2.146782418215639	3.398716341793611	-2.847826479300272	10.42255248112193	10.42255248112291	0.7113846464659445	-0.8487358513064237	2.490915380179211	-1.000157144901158	-3.353925415309585e-08	1.17871628106179e-07	1.372510654371198e-07	1.4719509956936e-08	-2.359573159647619e-08	-5.512840160703591e-08	-8.465592010910365e-09
0.01	-0.03962994938568163	0.06877745200722141	0.8958989235825253	0.1961379432505804	-0.322157843796253	-0.4823147062849555	-0.1380526566782089	0.07065922727112374	0.07065922727115022	-0.1745002118763163	-0.1170330771364518	-0.06689096848232415	0.003709537860582753	-0.04227768220487774	-0.01764655695589517	-0.009484743599446316	0.1212826430204668	-0.02100425232635784	0.03397681741062036	-0.02935446498971023	0.1008167282189891	0.1008167282189978	0.006443010024298437	-0.007204242311614903	0.02381756923810876	-0.0100973289841398	0.1038459844886005	-0.1018478169568198	-0.0298144932817338	-0.2333717041911394	0.1916293817409657	-0.0114374535825676	-0.04884832900417548	26.01597405787412	-2.509092077507903	3.400778292906534	-1.99938302633635	-515.8888841298696	-83.42106641505856	-39.90291067427417	-4.080751512757357	-1.737523973321772	-0.9276878222554721	11.81026075171749	-2.060274854776765	3.374727605651039	-2.937958461161692	9.843349509962719	9.843349509962952	0.6102550795662517	-0.6507763362991934	2.311074269523465	-1.004855042532112	-7.106814870337941e-08	1.541872849705508e-07	2.097610077694948e-07	5.0735880335422e-08	-2.465763416167853e-07	-9.992922395282134e-08	-1.269170006929123e-08
0.02	-0.04025874510401602	0.06851466575059761	0.895757450350225	0.197943320513643	-0.3224700800649112	-0.4818087940256122	-0.1384860906451152	0.07216016433712759	0.07216016433712738	-0.1744036495325458	-0.1171402249488476	-0.06653638881033652	0.003559687736373406	-0.08326658579624674	-0.03483423401179072	-0.01877794823961338	0.239238413548917	-0.04132963324994878	0.06705616141943235	-0.05705700807363197	0.1989181171449894	0.1989181171449813	0.01286585601476709	-0.01418880123163769	0.04699100143208727	-0.01980802866275112	0.09872651426401964	-0.09925475372845022	-0.02880016939256096	-0.2265721082545772	0.1827249996282382	-0.009143163615503757	-0.04456226495670257	23.27743662760607	-3.097602823386571	3.576386519632925	-0.9182234786114524	-515.8187603987342	-84.28026664597982	-39.93311616170317	-4.19960698257245	-1.704199165126086	-0.9421626955024408	11.93255327970014	-2.011008137662338	3.219221661431937	-2.517442098142582	9.879484622524156	9.87948462252003	0.7073518396998197	-0.8047991729880077	2.362087971353161	-0.9228312837955451	-1.085970432536629e-07	1.905029418349226e-07	2.822709501018697e-07	8.6752250713908e-08	-4.695569516370945e-07	-1.447300462986068e-07	-1.691780812767211e-08
0.03	-0.04129186559414755	0.06808256141909941	0.8955236786536733	0.2009127109507825	-0.3229821462501326	-0.4809766044322382	-0.1391879121513225	0.07462917615825512	0.07462917615824348	-0.1742428975416482	-0.1173163228542906	-0.06595277186785461	0.003314962759435338	-0.1231649011124206	-0.05148086153982493	-0.02796748964929826	0.3540798643547479	-0.06096815244621047	0.09925136056020274	-0.08306206573146512	0.2944280312945231	0.2944280312944565	0.01925711289794577	-0.02096889545676961	0.06965278632347921	-0.02905685565395627	0.09469127227728742	-0.09706664649959613	-0.02818051856047667	-0.2232678411138692	0.1789445858973971	-0.008103682766387512	-0.04112546657187745	22.1385443970077	-3.386366479448505	3.664376182741128	-0.8904121379251042	-515.7567740286244	-84.3148266059994	-39.98202743146653	-3.856064646615472	-1.629011438471267	-0.9061094628156896	11.17594936490948	-1.923008374085553	3.200073326744778	-2.605253484168358	9.318315843957754	9.318315843951435	0.6009631512929068	-0.6052984226799129	2.206282451356711	-0.9139535261653086	-1.395732279315416e-07	2.068971918684391e-07	3.427140738506827e-07	1.156390149952244e-07	-6.443370743521889e-07	-1.853838704762148e-07	-2.163718571271152e-08
